<svg width="169" height="50" viewBox="0 0 169 50" fill="none" xmlns="http://www.w3.org/2000/svg">
<rect width="169" height="50" rx="25" fill="#3A0CA3"/>
<g clip-path="url(#clip0_64_47)">
<path d="M45.7625 22.6375L36.3875 15.1375C36.2766 15.0487 36.1389 15.0004 35.9969 15.0004C35.8549 15.0004 35.7171 15.0487 35.6062 15.1375L26.2312 22.6375C26.1301 22.7186 26.0567 22.8292 26.0212 22.9539C25.9857 23.0786 25.9899 23.2113 26.0332 23.3335C26.0764 23.4557 26.1566 23.5615 26.2627 23.6361C26.3687 23.7107 26.4953 23.7505 26.625 23.75H27.875V34.375C27.875 34.5407 27.9408 34.6997 28.058 34.8169C28.1753 34.9341 28.3342 35 28.5 35H41V33.75H38.5V28.125C38.5 27.9592 38.4341 27.8002 38.3169 27.683C38.1997 27.5658 38.0408 27.5 37.875 27.5H34.125C33.9592 27.5 33.8003 27.5658 33.683 27.683C33.5658 27.8002 33.5 27.9592 33.5 28.125V33.75H29.125V23.75H39.75V22.5H28.4062L36 16.425L43.5937 22.5H43.5C43.3342 22.5 43.1753 22.5658 43.058 22.683C42.9408 22.8002 42.875 22.9592 42.875 23.125V26.875H44.125V23.75H45.375C45.5041 23.7492 45.6298 23.7085 45.7349 23.6334C45.8399 23.5583 45.9191 23.4525 45.9616 23.3306C46.0041 23.2086 46.0077 23.0765 45.9721 22.9524C45.9364 22.8283 45.8632 22.7183 45.7625 22.6375ZM34.75 28.75H37.25V33.75H34.75V28.75Z" fill="white"/>
<path d="M41.625 31.6188L40.8187 30.8125L39.9375 31.6937L41.1875 32.9437C41.3046 33.0602 41.463 33.1255 41.6281 33.1255C41.7932 33.1255 41.9516 33.0602 42.0687 32.9437L45.8187 29.1937L44.9375 28.3125L41.625 31.6188Z" fill="white"/>
</g>
<path d="M63.0634 30.5H64.9834L60.9994 19.364H58.8874L54.9034 30.5H56.8074L57.6074 28.228H62.2634L63.0634 30.5ZM61.7514 26.74H58.1194L59.9434 21.572L61.7514 26.74ZM66.1076 26.052C66.1076 28.772 67.9476 30.644 70.2676 30.644C71.7076 30.644 72.7636 29.972 73.3236 29.172V30.5H75.1636V18.66H73.3236V22.916C72.6516 22.084 71.4356 21.54 70.2836 21.54C67.9476 21.54 66.1076 23.332 66.1076 26.052ZM73.3236 26.084C73.3236 27.988 72.0276 29.06 70.6516 29.06C69.2916 29.06 67.9796 27.956 67.9796 26.052C67.9796 24.148 69.2916 23.124 70.6516 23.124C72.0276 23.124 73.3236 24.196 73.3236 26.084ZM76.9514 26.052C76.9514 28.772 78.7914 30.644 81.1114 30.644C82.5514 30.644 83.6074 29.972 84.1674 29.172V30.5H86.0074V18.66H84.1674V22.916C83.4954 22.084 82.2794 21.54 81.1274 21.54C78.7914 21.54 76.9514 23.332 76.9514 26.052ZM84.1674 26.084C84.1674 27.988 82.8714 29.06 81.4954 29.06C80.1354 29.06 78.8234 27.956 78.8234 26.052C78.8234 24.148 80.1354 23.124 81.4954 23.124C82.8714 23.124 84.1674 24.196 84.1674 26.084ZM92.5594 19.38V30.5H98.1434V29.028H94.3834V19.38H92.5594ZM99.6688 30.5H101.493V21.684H99.6688V30.5ZM100.597 20.516C101.237 20.516 101.749 20.004 101.749 19.348C101.749 18.692 101.237 18.18 100.597 18.18C99.9408 18.18 99.4288 18.692 99.4288 19.348C99.4288 20.004 99.9408 20.516 100.597 20.516ZM110.464 28.036C110.368 24.852 105.392 25.844 105.392 24.068C105.392 23.476 105.904 23.076 106.88 23.076C107.872 23.076 108.464 23.604 108.528 24.372H110.352C110.256 22.612 108.944 21.54 106.944 21.54C104.864 21.54 103.552 22.676 103.552 24.084C103.552 27.316 108.672 26.324 108.672 28.052C108.672 28.66 108.112 29.108 107.056 29.108C106.048 29.108 105.36 28.516 105.296 27.796H103.408C103.488 29.396 104.976 30.644 107.088 30.644C109.168 30.644 110.464 29.524 110.464 28.036ZM112.722 28.052C112.722 29.844 113.698 30.5 115.266 30.5H116.706V28.98H115.586C114.818 28.98 114.562 28.708 114.562 28.052V23.172H116.706V21.684H114.562V19.492H112.722V21.684H111.682V23.172H112.722V28.052ZM118.388 30.5H120.212V21.684H118.388V30.5ZM119.316 20.516C119.956 20.516 120.468 20.004 120.468 19.348C120.468 18.692 119.956 18.18 119.316 18.18C118.66 18.18 118.148 18.692 118.148 19.348C118.148 20.004 118.66 20.516 119.316 20.516ZM128.862 30.5H130.67V25.3C130.67 22.836 129.118 21.54 127.054 21.54C125.998 21.54 125.022 21.972 124.43 22.692V21.684H122.606V30.5H124.43V25.572C124.43 23.956 125.31 23.124 126.654 23.124C127.982 23.124 128.862 23.956 128.862 25.572V30.5ZM132.389 26.052C132.389 28.772 134.229 30.644 136.549 30.644C137.989 30.644 139.045 29.924 139.605 29.172V30.644C139.605 32.404 138.549 33.268 137.141 33.268C135.877 33.268 134.901 32.644 134.629 31.732H132.821C133.045 33.684 134.789 34.852 137.141 34.852C139.893 34.852 141.445 33.044 141.445 30.644V21.684H139.605V22.964C139.061 22.212 137.989 21.54 136.549 21.54C134.229 21.54 132.389 23.332 132.389 26.052ZM139.605 26.084C139.605 27.988 138.309 29.06 136.933 29.06C135.573 29.06 134.261 27.956 134.261 26.052C134.261 24.148 135.573 23.124 136.933 23.124C138.309 23.124 139.605 24.196 139.605 26.084Z" fill="white"/>
<defs>
<clipPath id="clip0_64_47">
<rect width="20" height="20" fill="white" transform="translate(26 15)"/>
</clipPath>
</defs>
</svg>
