<svg width="87" height="20" viewBox="0 0 87 20" fill="none" xmlns="http://www.w3.org/2000/svg">
<path d="M9.53582 19.0716C4.27949 19.0716 0 14.7921 0 9.53582C0 4.27949 4.27949 0 9.53582 0C14.7921 0 19.0716 4.27949 19.0716 9.53582C19.0716 14.7921 14.7921 19.0716 9.53582 19.0716ZM9.53582 1.39549C5.04235 1.39549 1.39549 5.05166 1.39549 9.53582C1.39549 14.02 5.04235 17.6761 9.53582 17.6761C14.0293 17.6761 17.6761 14.02 17.6761 9.53582C17.6761 5.05166 14.0293 1.39549 9.53582 1.39549Z" fill="white"/>
<path d="M19.3046 20.0019C19.1278 20.0019 18.951 19.9367 18.8115 19.7972L16.9508 17.9365C16.6811 17.6667 16.6811 17.2202 16.9508 16.9504C17.2206 16.6806 17.6672 16.6806 17.937 16.9504L19.7976 18.811C20.0674 19.0808 20.0674 19.5274 19.7976 19.7972C19.6581 19.9367 19.4813 20.0019 19.3046 20.0019Z" fill="white"/>
<path d="M38.954 12.848C38.954 8.784 33.066 10.352 33.066 7.84C33.066 6.768 33.882 6.256 34.938 6.288C36.09 6.32 36.746 7.008 36.81 7.76H38.826C38.666 5.856 37.162 4.736 35.034 4.736C32.762 4.736 31.21 5.952 31.21 7.904C31.21 12 37.114 10.256 37.114 12.944C37.114 13.888 36.394 14.576 35.114 14.576C33.85 14.576 33.21 13.84 33.13 12.928H31.178C31.178 14.896 32.89 16.112 35.114 16.112C37.594 16.112 38.954 14.512 38.954 12.848ZM44.8183 8.576C46.1783 8.576 47.2503 9.44 47.2823 10.8H42.4023C42.5943 9.408 43.5863 8.576 44.8183 8.576ZM48.9462 13.376H46.9783C46.6423 14.064 46.0183 14.608 44.8983 14.608C43.5543 14.608 42.5143 13.728 42.3863 12.272H49.1223C49.1703 11.968 49.1863 11.68 49.1863 11.376C49.1863 8.784 47.4103 7.04 44.8983 7.04C42.2903 7.04 40.4983 8.816 40.4983 11.584C40.4983 14.352 42.3703 16.144 44.8983 16.144C47.0583 16.144 48.4503 14.912 48.9462 13.376ZM50.3733 11.552C50.3733 14.272 52.2133 16.144 54.5013 16.144C55.9733 16.144 57.0293 15.44 57.5893 14.688V16H59.4293V7.184H57.5893V8.464C57.0453 7.744 56.0213 7.04 54.5333 7.04C52.2133 7.04 50.3733 8.832 50.3733 11.552ZM57.5893 11.584C57.5893 13.488 56.2933 14.56 54.9173 14.56C53.5573 14.56 52.2453 13.456 52.2453 11.552C52.2453 9.648 53.5573 8.624 54.9173 8.624C56.2933 8.624 57.5893 9.696 57.5893 11.584ZM63.649 11.36C63.649 9.488 64.481 8.928 65.825 8.928H66.289V7.04C65.041 7.04 64.161 7.584 63.649 8.464V7.184H61.825V16H63.649V11.36ZM67.3576 11.584C67.3576 14.352 69.1496 16.144 71.6776 16.144C73.8376 16.144 75.2456 14.944 75.7416 13.216H73.7736C73.4376 14.128 72.7656 14.608 71.6776 14.608C70.2056 14.608 69.2296 13.52 69.2296 11.584C69.2296 9.664 70.2056 8.576 71.6776 8.576C72.7656 8.576 73.4696 9.12 73.7736 9.968H75.7416C75.2456 8.112 73.8376 7.04 71.6776 7.04C69.1496 7.04 67.3576 8.832 67.3576 11.584ZM77.5594 16H79.3834V11.072C79.3834 9.456 80.2634 8.624 81.6074 8.624C82.9354 8.624 83.8154 9.456 83.8154 11.072V16H85.6234V10.8C85.6234 8.336 84.0874 7.04 82.1194 7.04C80.9834 7.04 79.9914 7.472 79.3834 8.208V4.16H77.5594V16Z" fill="white"/>
</svg>
