<svg width="149" height="50" viewBox="0 0 149 50" fill="none" xmlns="http://www.w3.org/2000/svg">
<rect width="149" height="50" fill="#CECECE"/>
<g clip-path="url(#clip0_27_43)">
<path d="M35.7625 22.6375L26.3875 15.1375C26.2766 15.0487 26.1389 15.0004 25.9969 15.0004C25.8549 15.0004 25.7171 15.0487 25.6062 15.1375L16.2312 22.6375C16.1301 22.7186 16.0567 22.8292 16.0212 22.9539C15.9857 23.0786 15.9899 23.2113 16.0332 23.3335C16.0764 23.4557 16.1566 23.5615 16.2627 23.6361C16.3687 23.7107 16.4953 23.7505 16.625 23.75H17.875V34.375C17.875 34.5407 17.9408 34.6997 18.058 34.8169C18.1753 34.9341 18.3342 35 18.5 35H31V33.75H28.5V28.125C28.5 27.9592 28.4341 27.8002 28.3169 27.683C28.1997 27.5658 28.0408 27.5 27.875 27.5H24.125C23.9592 27.5 23.8003 27.5658 23.683 27.683C23.5658 27.8002 23.5 27.9592 23.5 28.125V33.75H19.125V23.75H29.75V22.5H18.4062L26 16.425L33.5937 22.5H33.5C33.3342 22.5 33.1753 22.5658 33.058 22.683C32.9408 22.8002 32.875 22.9592 32.875 23.125V26.875H34.125V23.75H35.375C35.5041 23.7492 35.6298 23.7085 35.7349 23.6334C35.8399 23.5583 35.9191 23.4525 35.9616 23.3306C36.0041 23.2086 36.0077 23.0765 35.9721 22.9524C35.9364 22.8283 35.8632 22.7183 35.7625 22.6375ZM24.75 28.75H27.25V33.75H24.75V28.75Z" fill="white"/>
<path d="M31.625 31.6188L30.8187 30.8125L29.9375 31.6937L31.1875 32.9437C31.3046 33.0602 31.463 33.1255 31.6281 33.1255C31.7932 33.1255 31.9516 33.0602 32.0687 32.9437L35.8187 29.1937L34.9375 28.3125L31.625 31.6188Z" fill="white"/>
</g>
<path d="M53.0634 30.5H54.9834L50.9994 19.364H48.8874L44.9034 30.5H46.8074L47.6074 28.228H52.2634L53.0634 30.5ZM51.7514 26.74H48.1194L49.9434 21.572L51.7514 26.74ZM56.1076 26.052C56.1076 28.772 57.9476 30.644 60.2676 30.644C61.7076 30.644 62.7636 29.972 63.3236 29.172V30.5H65.1636V18.66H63.3236V22.916C62.6516 22.084 61.4356 21.54 60.2836 21.54C57.9476 21.54 56.1076 23.332 56.1076 26.052ZM63.3236 26.084C63.3236 27.988 62.0276 29.06 60.6516 29.06C59.2916 29.06 57.9796 27.956 57.9796 26.052C57.9796 24.148 59.2916 23.124 60.6516 23.124C62.0276 23.124 63.3236 24.196 63.3236 26.084ZM66.9514 26.052C66.9514 28.772 68.7914 30.644 71.1114 30.644C72.5514 30.644 73.6074 29.972 74.1674 29.172V30.5H76.0074V18.66H74.1674V22.916C73.4954 22.084 72.2794 21.54 71.1274 21.54C68.7914 21.54 66.9514 23.332 66.9514 26.052ZM74.1674 26.084C74.1674 27.988 72.8714 29.06 71.4954 29.06C70.1354 29.06 68.8234 27.956 68.8234 26.052C68.8234 24.148 70.1354 23.124 71.4954 23.124C72.8714 23.124 74.1674 24.196 74.1674 26.084ZM82.5594 19.38V30.5H88.1434V29.028H84.3834V19.38H82.5594ZM89.6688 30.5H91.4928V21.684H89.6688V30.5ZM90.5968 20.516C91.2368 20.516 91.7488 20.004 91.7488 19.348C91.7488 18.692 91.2368 18.18 90.5968 18.18C89.9408 18.18 89.4288 18.692 89.4288 19.348C89.4288 20.004 89.9408 20.516 90.5968 20.516ZM100.464 28.036C100.368 24.852 95.3915 25.844 95.3915 24.068C95.3915 23.476 95.9035 23.076 96.8795 23.076C97.8715 23.076 98.4635 23.604 98.5275 24.372H100.352C100.256 22.612 98.9435 21.54 96.9435 21.54C94.8635 21.54 93.5515 22.676 93.5515 24.084C93.5515 27.316 98.6715 26.324 98.6715 28.052C98.6715 28.66 98.1115 29.108 97.0555 29.108C96.0475 29.108 95.3595 28.516 95.2955 27.796H93.4075C93.4875 29.396 94.9755 30.644 97.0875 30.644C99.1675 30.644 100.464 29.524 100.464 28.036ZM102.722 28.052C102.722 29.844 103.698 30.5 105.266 30.5H106.706V28.98H105.586C104.818 28.98 104.562 28.708 104.562 28.052V23.172H106.706V21.684H104.562V19.492H102.722V21.684H101.682V23.172H102.722V28.052ZM108.388 30.5H110.212V21.684H108.388V30.5ZM109.316 20.516C109.956 20.516 110.468 20.004 110.468 19.348C110.468 18.692 109.956 18.18 109.316 18.18C108.66 18.18 108.148 18.692 108.148 19.348C108.148 20.004 108.66 20.516 109.316 20.516ZM118.862 30.5H120.67V25.3C120.67 22.836 119.118 21.54 117.054 21.54C115.998 21.54 115.022 21.972 114.43 22.692V21.684H112.606V30.5H114.43V25.572C114.43 23.956 115.31 23.124 116.654 23.124C117.982 23.124 118.862 23.956 118.862 25.572V30.5ZM122.389 26.052C122.389 28.772 124.229 30.644 126.549 30.644C127.989 30.644 129.045 29.924 129.605 29.172V30.644C129.605 32.404 128.549 33.268 127.141 33.268C125.877 33.268 124.901 32.644 124.629 31.732H122.821C123.045 33.684 124.789 34.852 127.141 34.852C129.893 34.852 131.445 33.044 131.445 30.644V21.684H129.605V22.964C129.061 22.212 127.989 21.54 126.549 21.54C124.229 21.54 122.389 23.332 122.389 26.052ZM129.605 26.084C129.605 27.988 128.309 29.06 126.933 29.06C125.573 29.06 124.261 27.956 124.261 26.052C124.261 24.148 125.573 23.124 126.933 23.124C128.309 23.124 129.605 24.196 129.605 26.084Z" fill="white"/>
<defs>
<clipPath id="clip0_27_43">
<rect width="20" height="20" fill="white" transform="translate(16 15)"/>
</clipPath>
</defs>
</svg>
