<svg width="97" height="49" viewBox="0 0 97 49" fill="none" xmlns="http://www.w3.org/2000/svg">
<rect width="97" height="49" rx="24.5" fill="#3A0CA3"/>
<path d="M37.4399 22.208C37.4399 23.312 36.7999 24.096 35.3759 24.096H33.3599V20.368H35.3759C36.7999 20.368 37.4399 21.088 37.4399 22.208ZM31.5359 18.88V30H33.3599V25.552H34.7519L37.3119 30H39.4879L36.7359 25.392C38.6079 24.928 39.3119 23.52 39.3119 22.208C39.3119 20.4 38.0159 18.88 35.3759 18.88H31.5359ZM45.3573 22.576C46.7173 22.576 47.7893 23.44 47.8213 24.8H42.9413C43.1333 23.408 44.1253 22.576 45.3573 22.576ZM49.4853 27.376H47.5173C47.1813 28.064 46.5573 28.608 45.4373 28.608C44.0933 28.608 43.0533 27.728 42.9253 26.272H49.6613C49.7093 25.968 49.7253 25.68 49.7253 25.376C49.7253 22.784 47.9493 21.04 45.4373 21.04C42.8293 21.04 41.0373 22.816 41.0373 25.584C41.0373 28.352 42.9093 30.144 45.4373 30.144C47.5973 30.144 48.9893 28.912 49.4853 27.376ZM57.7763 30H59.5843V24.8C59.5843 22.336 58.0323 21.04 55.9683 21.04C54.9123 21.04 53.9363 21.472 53.3443 22.192V21.184H51.5203V30H53.3443V25.072C53.3443 23.456 54.2243 22.624 55.5683 22.624C56.8963 22.624 57.7763 23.456 57.7763 25.072V30ZM62.1989 27.552C62.1989 29.344 63.1749 30 64.7429 30H66.1829V28.48H65.0629C64.2949 28.48 64.0389 28.208 64.0389 27.552V22.672H66.1829V21.184H64.0389V18.992H62.1989V21.184H61.1589V22.672H62.1989V27.552Z" fill="white"/>
</svg>
