<svg width="40" height="39" viewBox="0 0 40 39" fill="none" xmlns="http://www.w3.org/2000/svg">
<path d="M30.531 38.8827H19.1277C18.3736 38.8827 17.7483 38.2573 17.7483 37.5032C17.7483 36.7491 18.3736 36.1238 19.1277 36.1238H30.531C32.499 36.1238 34.4301 34.4867 34.7612 32.5371L37.2074 17.897C37.4281 16.5727 36.6926 14.6781 35.6626 13.8505L22.9165 3.66125C21.4451 2.48414 18.999 2.48412 17.546 3.64284L4.8001 13.8505C3.75174 14.6965 3.03444 16.5727 3.25514 17.897L3.77013 21.0051C3.89888 21.7592 3.38391 22.4765 2.62982 22.5869C1.87574 22.734 1.17685 22.2006 1.0481 21.4465L0.533113 18.3568C0.146873 16.0761 1.25043 13.1517 3.07128 11.6987L15.8172 1.49086C18.2817 -0.495513 22.1624 -0.477102 24.6454 1.50927L37.3913 11.6987C39.1938 13.1517 40.2973 16.0761 39.9295 18.3568L37.4833 32.9969C36.9315 36.2524 33.8232 38.8827 30.531 38.8827Z" fill="#4361EE"/>
</svg>
